<svg width="94" height="21" viewBox="0 0 94 21" fill="none" xmlns="http://www.w3.org/2000/svg">
<path d="M17.656 1.76V11.968C17.656 14.08 17.4213 15.7333 16.952 16.928C16.504 18.1013 15.6507 18.9653 14.392 19.52C13.1333 20.0747 11.2987 20.352 8.888 20.352C7.11733 20.352 5.624 20.1707 4.408 19.808C3.192 19.424 2.22133 18.7093 1.496 17.664C0.792 16.6187 0.44 15.1467 0.44 13.248V1.76H6.2V12.032C6.2 13.1627 6.25333 14.0267 6.36 14.624C6.488 15.2 6.76533 15.648 7.192 15.968C7.61867 16.2667 8.26933 16.416 9.144 16.416C9.67733 16.416 10.1787 16.3627 10.648 16.256C11.1173 16.1493 11.4373 15.9893 11.608 15.776C11.8 15.52 11.896 14.592 11.896 12.992V1.76H17.656ZM36.0538 20H30.1018L27.0618 14.016C26.7631 13.3973 26.3684 13.0027 25.8778 12.832V20H20.4058V0.799999L25.8778 0.575998V11.488C26.3898 11.2747 26.8271 10.8373 27.1898 10.176L29.9098 5.28L35.8938 5.248L32.7898 10.24C32.2991 11.0293 31.7658 11.6587 31.1898 12.128C31.6804 12.6613 32.2351 13.472 32.8538 14.56L36.0538 20ZM51.4583 6.208C51.6503 6.44267 51.7889 7.02933 51.8743 7.968C51.9809 8.90667 52.0343 10.336 52.0343 12.256V20H46.5623V12.32V11.008C46.5623 10.3253 46.5089 9.89867 46.4023 9.728C46.2316 9.51467 45.8369 9.408 45.2183 9.408C44.9196 9.408 44.6956 9.41867 44.5463 9.44C43.9489 9.46133 43.3303 9.6 42.6903 9.856V20H37.2183V5.28H41.6663L42.2743 7.744C43.8103 5.888 45.6449 4.96 47.7783 4.96C48.5463 4.96 49.2609 5.06667 49.9223 5.28C50.6049 5.49333 51.1169 5.80267 51.4583 6.208ZM61.666 20.416C59.106 20.416 57.186 19.8187 55.906 18.624C54.6473 17.408 54.018 15.4987 54.018 12.896C54.018 11.4667 54.146 10.2187 54.402 9.152C54.6793 8.064 55.01 7.30667 55.394 6.88C55.8847 6.32533 56.7807 5.86667 58.082 5.504C59.4047 5.14133 60.642 4.96 61.794 4.96C64.546 4.96 66.5087 5.54667 67.682 6.72C68.8553 7.89333 69.442 9.77067 69.442 12.352C69.442 15.1253 68.8127 17.1627 67.554 18.464C66.2953 19.7653 64.3327 20.416 61.666 20.416ZM61.762 16.672C62.594 16.672 63.138 16.384 63.394 15.808C63.65 15.2107 63.778 14.1653 63.778 12.672C63.778 11.6267 63.7247 10.8267 63.618 10.272C63.5113 9.696 63.3087 9.28 63.01 9.024C62.7327 8.74667 62.2953 8.608 61.698 8.608C60.8447 8.608 60.354 8.68267 60.226 8.832C60.0553 8.98133 59.9167 9.45067 59.81 10.24C59.7033 11.0293 59.65 11.8507 59.65 12.704C59.65 14.1547 59.7887 15.1787 60.066 15.776C60.3647 16.3733 60.93 16.672 61.762 16.672ZM80.2743 20H73.3623L70.0983 5.28H75.6983L77.1383 16.224H77.2343L78.8663 5.28H84.7863L86.5143 16.192H86.6423L87.9862 5.28H93.6183L90.3543 20H83.4103L81.8743 11.104H81.7783L80.2743 20Z" fill="#555073"/>
</svg>
